<svg xmlns="http://www.w3.org/2000/svg" viewBox="0 0 800 500"><path fill="#fff" d="M0 0h800v500H0z"/><text x="400" y="30" font-family="Arial" font-size="20" font-weight="bold" text-anchor="middle">Generalized Robot Navigation Stack with DWA</text><rect x="50" y="80" width="150" height="70" fill="#d1e7dd" stroke="#20c997" stroke-width="2" rx="5"/><text x="125" y="115" font-family="Arial" font-size="14" font-weight="bold" text-anchor="middle">Sensors</text><text x="125" y="135" font-family="Arial" font-size="12" text-anchor="middle">LiDAR, IMU, Odometry</text><rect x="50" y="200" width="150" height="70" fill="#cfe2ff" stroke="#0d6efd" stroke-width="2" rx="5"/><text x="125" y="235" font-family="Arial" font-size="14" font-weight="bold" text-anchor="middle">Perception</text><text x="125" y="255" font-family="Arial" font-size="12" text-anchor="middle">Localization, Mapping</text><rect x="50" y="300" width="150" height="70" fill="#e0cffc" stroke="#6f42c1" stroke-width="2" rx="5"/><text x="125" y="335" font-family="Arial" font-size="14" font-weight="bold" text-anchor="middle">2D Map</text><text x="125" y="355" font-family="Arial" font-size="12" text-anchor="middle">Static Environment</text><rect x="300" y="140" width="200" height="200" fill="#f8d7da" stroke="#dc3545" stroke-width="2" rx="5"/><text x="400" y="160" font-family="Arial" font-size="16" font-weight="bold" text-anchor="middle">Navigation Stack</text><rect x="320" y="180" width="160" height="50" fill="#fff3cd" stroke="#ffc107" stroke-width="2" rx="5"/><text x="400" y="210" font-family="Arial" font-size="14" font-weight="bold" text-anchor="middle">Global Path Planner</text><rect x="320" y="250" width="160" height="70" fill="#e2e3e5" stroke="#6c757d" stroke-width="2" rx="5"/><text x="400" y="275" font-family="Arial" font-size="14" font-weight="bold" text-anchor="middle">Local Planner (DWA)</text><text x="400" y="295" font-family="Arial" font-size="12" text-anchor="middle">Dynamic Window Approach</text><rect x="320" y="340" width="160" height="50" fill="#d1ecf1" stroke="#0dcaf0" stroke-width="2" rx="5"/><text x="400" y="370" font-family="Arial" font-size="14" font-weight="bold" text-anchor="middle">Local/Global Costmaps</text><rect x="600" y="200" width="150" height="70" fill="#f1dfd1" stroke="#d39e00" stroke-width="2" rx="5"/><text x="675" y="235" font-family="Arial" font-size="14" font-weight="bold" text-anchor="middle">Motion Controller</text><text x="675" y="255" font-family="Arial" font-size="12" text-anchor="middle">Velocity Commands</text><rect x="325" y="80" width="150" height="40" fill="#e0cffc" stroke="#6f42c1" stroke-width="2" rx="5"/><text x="400" y="105" font-family="Arial" font-size="14" font-weight="bold" text-anchor="middle">Navigation Goal</text><rect x="600" y="320" width="150" height="70" fill="#d6d8db" stroke="#5a6268" stroke-width="2" rx="5"/><text x="675" y="355" font-family="Arial" font-size="14" font-weight="bold" text-anchor="middle">Robot</text><text x="675" y="375" font-family="Arial" font-size="12" text-anchor="middle">Motor Execution</text><rect x="300" y="430" width="200" height="50" fill="#fff8e1" stroke="#ff9800" stroke-width="2" rx="5"/><text x="400" y="460" font-family="Arial" font-size="14" font-weight="bold" text-anchor="middle">State Feedback</text><path stroke="#000" stroke-width="2" marker-end="url(#prefix__arrowhead)" d="M125 150v50"/><text x="85" y="180" font-family="Arial" font-size="10" fill="#444" text-anchor="middle">S(t) = {s₁,...,sₙ}</text><path stroke="#000" stroke-width="2" marker-end="url(#prefix__arrowhead)" d="M200 235h100"/><text x="250" y="225" font-family="Arial" font-size="10" fill="#444" text-anchor="middle">P(t) = (x, y, θ)</text><path stroke="#000" stroke-width="2" marker-end="url(#prefix__arrowhead)" d="M200 330h100"/><text x="240" y="325" font-family="Arial" font-size="10" fill="#444" text-anchor="middle">M = {m₁,...,mₖ}</text><path stroke="#000" stroke-width="2" marker-end="url(#prefix__arrowhead)" d="M400 120v20"/><text x="440" y="130" font-family="Arial" font-size="10" fill="#444" text-anchor="middle">G = (xₒ, yₒ)</text><path stroke="#000" stroke-dasharray="3 3" d="M400 230v20"/><text x="450" y="240" font-family="Arial" font-size="10" fill="#444" text-anchor="middle">Γ = {(x₁,y₁),...,(xₙ,yₙ)}</text><path stroke="#000" stroke-dasharray="3 3" d="M400 320v20"/><text x="450" y="330" font-family="Arial" font-size="10" fill="#444" text-anchor="middle">Q(x,y) = {0,...,100}</text><path stroke="#000" stroke-width="2" marker-end="url(#prefix__arrowhead)" d="M500 235h100"/><text x="550" y="225" font-family="Arial" font-size="10" fill="#444" text-anchor="middle">τ(t) = (v(t),ω(t))</text><path stroke="#000" stroke-width="2" marker-end="url(#prefix__arrowhead)" d="M675 270v50"/><text x="720" y="295" font-family="Arial" font-size="10" fill="#444" text-anchor="middle">u(t) = (v, ω)</text><path stroke="#000" stroke-width="2" d="M675 390v65"/><path stroke="#000" stroke-width="2" marker-end="url(#prefix__arrowhead)" d="M675 455H500"/><text x="590" y="475" font-family="Arial" font-size="10" fill="#444" text-anchor="middle">X(t) = (x, y, θ, v, ω)</text><path stroke="#000" stroke-width="2" d="M300 455H125"/><path stroke="#000" stroke-width="2" marker-end="url(#prefix__arrowhead)" d="M125 455v-65"/><text x="180" y="475" font-family="Arial" font-size="10" fill="#444" text-anchor="middle">X&apos;(t) = f(X(t))</text><defs><marker id="prefix__arrowhead" markerWidth="10" markerHeight="7" refX="9" refY="3.5" orient="auto"><path d="M0 0l10 3.5L0 7z"/></marker></defs></svg>